<svg width="78" height="104" viewBox="0 0 78 104" fill="none" xmlns="http://www.w3.org/2000/svg">
<g id="css">
<path d="M19.5088 0H30.6801V4.67133H24.1801V9.34267H30.6801V14.014H19.5088V0Z" fill="black"/>
<path d="M32.9116 0H44.0873V4.06467H37.5873V4.875H44.0873V14.2177H32.9116V9.95367H39.4116V9.139H32.9116V0Z" fill="black"/>
<path d="M46.3232 0H57.4902V4.06467H50.9902V4.875H57.4902V14.2177H46.3232V9.95367H52.8232V9.139H46.3232V0Z" fill="black"/>
<path fill-rule="evenodd" clip-rule="evenodd" d="M38.961 104L8.87033 95.6456L0 20.4406H78L69.134 95.6369L38.961 104ZM17.537 54.4832L18.3647 63.7046H50.3317L49.2613 75.6646L38.974 78.4466H38.9653L28.6953 75.6732L28.0367 68.3196H18.7763L20.0677 82.8016L38.961 88.0449L57.8847 82.8016L60.19 56.9576L60.4153 54.4832L62.0793 35.8109H15.8773L16.718 45.0366H51.974L51.1333 54.4832H17.537Z" fill="black"/>
</g>
<g id="html">
<path d="M9.1001 0H13.8338V4.67688H18.1651V0H22.8988V14.1575H18.1651V9.41938H13.8338V14.1575H9.10447V0H9.1001Z" fill="black"/>
<path d="M29.1201 4.69438H24.9551V0H38.0232V4.69438H33.8538V14.1575H29.1201V4.69438Z" fill="black"/>
<path d="M40.0967 0H45.0317L48.0679 4.97437L51.0998 0H56.0348V14.1575H51.3229V7.14L48.0679 12.1756H47.9848L44.7254 7.14437V14.1575H40.0967V0Z" fill="black"/>
<path d="M58.3887 0H63.1268V9.48063H69.7768V14.1619H58.3887V0Z" fill="black"/>
<path fill-rule="evenodd" clip-rule="evenodd" d="M8.95125 96.5652L0 20.6371H78.75L69.7944 96.5565L39.3312 105L8.95125 96.5652ZM27.0506 55.0027L26.2019 45.4652H61.8363L62.6675 36.1552H16.03L18.5413 64.3171H50.8156L49.735 76.3921L39.3488 79.2008H39.34L28.9712 76.4008L28.3063 68.9765H18.9525L20.2563 83.5977L39.3312 88.8915L58.4369 83.5977L60.7644 57.5052L60.9919 55.0071H27.0506V55.0027Z" fill="black"/>
</g>
<g id="js">
<path d="M43.9803 99C42.6607 99 41.3214 98.6464 40.1594 97.9785L28.0072 90.8081C26.1952 89.7866 27.0815 89.433 27.6723 89.2365C30.0949 88.3918 30.5873 88.215 33.1674 86.7416C33.4432 86.5845 33.7977 86.6434 34.0734 86.8202L43.4091 92.3404C43.744 92.5369 44.2167 92.5369 44.5318 92.3404L80.9096 71.399C81.2444 71.2026 81.4611 70.8097 81.4611 70.4168V28.5341C81.4611 28.1215 81.2444 27.7483 80.8899 27.5322L44.5318 6.61048C44.197 6.41403 43.744 6.41403 43.4091 6.61048L7.07072 27.5518C6.7162 27.7483 6.49955 28.1412 6.49955 28.5537V70.4168C6.49955 70.8097 6.7162 71.2026 7.07072 71.3794L17.0367 77.1157C22.453 79.807 25.7619 76.6442 25.7619 73.4421V32.1094C25.7619 31.5201 26.2346 31.0683 26.8254 31.0683H31.4342C32.0054 31.0683 32.4978 31.5201 32.4978 32.1094V73.4618C32.4978 80.6517 28.5586 84.7772 21.7243 84.7772C19.6168 84.7772 17.9624 84.7772 13.3536 82.4984L3.82095 77.0175C1.45748 75.662 0 73.1278 0 70.3972V28.5341C0 25.8231 1.45748 23.2693 3.82095 21.9138L40.1594 0.972418C42.4637 -0.324139 45.5166 -0.324139 47.8013 0.972418L84.1791 21.9334C86.5425 23.2889 88 25.8231 88 28.5537V70.4168C88 73.1278 86.5425 75.662 84.1791 77.0371L47.8013 97.9785C46.6392 98.6464 45.3196 99 43.9803 99ZM73.3465 57.7263C73.3465 49.888 68.0286 47.8056 56.8612 46.3323C45.556 44.8393 44.4136 44.0731 44.4136 41.4407C44.4136 39.2601 45.3787 36.3527 53.7493 36.3527C61.214 36.3527 63.9714 37.9636 65.1137 42.9927C65.2122 43.4641 65.6455 43.8177 66.1379 43.8177H70.8648C71.1603 43.8177 71.436 43.6999 71.6329 43.4838C71.8299 43.2677 71.9284 42.973 71.9087 42.6783C71.1799 34.015 65.4091 29.9878 53.7493 29.9878C43.3697 29.9878 37.1853 34.3489 37.1853 41.6765C37.1853 49.613 43.35 51.8132 53.2963 52.7954C65.2122 53.9545 66.1379 55.7029 66.1379 58.0406C66.1379 62.0874 62.8684 63.8162 55.2068 63.8162C45.5756 63.8162 43.4682 61.3998 42.7592 56.6262C42.6804 56.1154 42.2471 55.7421 41.7153 55.7421H37.0081C36.4172 55.7421 35.9642 56.2136 35.9642 56.7833C35.9642 62.8928 39.2927 70.1811 55.2265 70.1811C66.7287 70.1614 73.3465 65.6235 73.3465 57.7263Z" fill="black"/>
</g>
<g id="mail">
<path d="M33.3047 27.5993C33.3047 29.5706 33.8648 30.3567 35.3297 30.3567C38.5945 30.3567 40.6734 26.1913 40.6734 19.2639C40.6734 8.67569 32.9672 3.60685 23.3461 3.60685C13.4484 3.60685 4.44609 10.2527 4.44609 22.8121C4.44609 34.8084 12.3211 41.3415 24.4148 41.3415C28.5211 41.3415 31.2773 40.891 35.4938 39.4829L36.3984 43.2541C32.2359 44.6081 27.7875 45 24.3586 45C8.49609 45 0 36.2703 0 22.8098C0 9.23654 9.8461 0 23.4023 0C37.5211 0 45 8.44806 45 18.811C45 27.597 42.2461 34.2991 33.5836 34.2991C29.6438 34.2991 27.0586 32.7222 26.7211 29.2279C25.7086 33.114 23.0086 34.2991 19.35 34.2991C14.4563 34.2991 10.35 30.5233 10.35 22.9224C10.35 15.2628 13.9523 10.5319 20.4211 10.5319C23.8523 10.5319 25.9898 11.8836 26.9414 14.0238L28.575 11.0388H33.3V27.5993H33.3047ZM26.3883 20.165C26.3883 17.0698 24.0797 15.7721 22.1672 15.7721C20.0859 15.7721 17.782 17.4593 17.782 22.4179C17.782 26.3603 19.5258 28.5568 22.1672 28.5568C24.0234 28.5568 26.3883 27.3741 26.3883 24.1075V20.165Z" fill="black"/>
</g>
<g id="message">
<path d="M18 16H2C1.46957 16 0.960859 15.7893 0.585786 15.4142C0.210714 15.0391 0 14.5304 0 14V1.913C0.0224326 1.39779 0.243009 0.911159 0.615678 0.554701C0.988347 0.198243 1.4843 -0.000487239 2 8.9712e-07H18C18.5304 8.9712e-07 19.0391 0.210714 19.4142 0.585787C19.7893 0.96086 20 1.46957 20 2V14C20 14.5304 19.7893 15.0391 19.4142 15.4142C19.0391 15.7893 18.5304 16 18 16ZM2 3.868V14H18V3.868L10 9.2L2 3.868ZM2.8 2L10 6.8L17.2 2H2.8Z" fill="black"/>
</g>
<g id="phone">
<path d="M2.18299 7.91776L8.83927 1.26859C9.65177 0.456193 10.7393 -1.54427e-07 11.8893 -1.49904e-07C13.0393 -1.4538e-07 14.1268 0.449944 14.9393 1.26859L22.1081 8.42395C22.9206 9.23635 23.3768 10.33 23.3768 11.4798C23.3768 12.6359 22.9268 13.717 22.1081 14.5357L16.508 20.1412C17.7838 23.1133 19.6168 25.8136 21.9081 28.0965C24.2018 30.4025 26.8831 32.221 29.8581 33.5083L35.4581 27.9028C36.2706 27.0904 37.3581 26.6342 38.5082 26.6342C39.0754 26.6321 39.6373 26.7432 40.1611 26.961C40.6848 27.1789 41.1598 27.499 41.5582 27.9028L48.7332 35.0581C49.5457 35.8705 50.002 36.9641 50.002 38.114C50.002 39.2701 49.552 40.3512 48.7332 41.1699L42.0832 47.819C40.6957 49.2064 38.7832 50 36.8206 50C36.4144 50 36.0206 49.9688 35.6206 49.9C27.3456 48.5377 19.1331 44.132 12.5018 37.5078C5.87675 30.8712 1.47673 22.6597 0.101725 14.3795C-0.292026 12.0298 0.49548 9.6113 2.18299 7.91776V7.91776ZM4.533 13.6358C5.75175 21.0036 9.71427 28.3527 15.683 34.3207C21.6518 40.2887 28.9956 44.2507 36.3644 45.4693C37.2894 45.6256 38.2394 45.3131 38.9144 44.6444L45.4457 38.114L38.5207 31.1836L31.0331 38.6827L30.9769 38.7389L29.6269 38.239C25.5335 36.7342 21.8164 34.3575 18.7331 31.2735C15.6498 28.1895 13.2741 24.472 11.7705 20.3787L11.2705 19.0289L18.8206 11.4861L11.8955 4.55568L5.36425 11.0861C4.68925 11.761 4.37675 12.7109 4.533 13.6358Z" fill="black"/>
</g>
<g id="react">
<path d="M45.8125 21C45.8125 18.0833 42.6875 15.375 37.4792 13.5L36.5417 13.1875V12.7708C37.6875 7.04164 36.8542 2.7708 34.25 1.2083C31.6458 -0.354197 27.7917 1.10414 23.625 4.74997L23 5.37497L22.7917 5.16664H22.5833C18.3125 1.2083 14.1458 -0.145864 11.5417 1.31247C8.9375 2.7708 8.20833 6.8333 9.25 12.1458C9.35958 12.4838 9.4295 12.8333 9.45833 13.1875L8.3125 13.6041C3.20833 15.375 0.1875 18.0833 0.1875 21C0.1875 23.9166 3.52083 26.8333 8.72917 28.7083L9.45833 28.9166C9.32964 29.2854 9.25935 29.672 9.25 30.0625C8.20833 35.2708 9.14583 39.2291 11.5417 40.6875C13.9375 42.1458 18.3125 40.7916 22.4792 37.1458L23.1042 36.625L23.9375 37.4583C26.8542 39.9583 29.7708 41.3125 32.0625 41.3125C32.8708 41.3309 33.6671 41.1137 34.3542 40.6875C36.9583 39.2291 37.8958 34.9583 36.75 29.5416V29.3333C36.705 29.1619 36.6702 28.988 36.6458 28.8125H36.9583C42.4792 26.8333 45.8125 24.0208 45.8125 21ZM42.7917 21C42.7917 22.25 40.5 24.4375 36.0208 25.8958H35.8125C35.2664 24.2202 34.6051 22.5843 33.8333 21C34.5625 19.3333 35.1875 17.6666 35.7083 16.1041L36.5417 16.3125C40.7083 17.7708 42.7917 19.75 42.7917 21ZM25.9167 35.1666L25.0833 34.5416C26.2761 33.2201 27.3891 31.8287 28.4167 30.375L33.7292 29.5416C33.8333 29.75 33.8333 29.9583 33.9375 30.0625C34.3087 31.9492 34.379 33.8829 34.1458 35.7916C33.9995 36.7045 33.5608 37.5452 32.8958 38.1875C31.8542 38.8125 29.0417 37.9791 25.9167 35.1666ZM24.5625 30.5833L23.1042 32.4583L21.4375 30.5833H24.5625ZM10.2917 16C10.8152 17.7174 11.4771 19.3895 12.2708 21C11.4765 22.646 10.8146 24.3528 10.2917 26.1041L9.66667 25.8958C7.84256 25.3201 6.1454 24.4008 4.66667 23.1875C4.28377 22.9455 3.95605 22.6257 3.7048 22.2489C3.45356 21.872 3.2844 21.4465 3.20833 21C3.20833 19.75 5.29167 17.7708 9.25 16.4166L10.2917 16ZM21.4375 11.4166L23 9.6458L24.5625 11.4166H21.4375ZM32.8958 3.81247C34.0417 4.43747 34.6667 7.56247 33.7292 12.1458C33.734 12.2022 33.7272 12.2591 33.7093 12.3128C33.6914 12.3665 33.6627 12.416 33.625 12.4583L28.4167 11.625C27.3891 10.1712 26.2761 8.77988 25.0833 7.4583L25.7083 6.93747C29.0417 4.0208 31.75 3.18747 32.8958 3.81247ZM15.5 14.8541L14.6667 16.2083L13.9375 17.5625C13.625 16.8333 13.4167 16.1041 13.1042 15.2708L15.5 14.8541ZM13.1042 26.7291C13.4167 26 13.625 25.2708 13.9375 24.4375L14.6667 25.7916L15.5 27.1458L13.1042 26.7291ZM30.5 21C29.9699 22.142 29.3788 23.2548 28.7292 24.3333C28.1042 25.4791 27.375 26.5208 26.75 27.5625H19.25C18.5208 26.4166 17.7917 25.375 17.2708 24.3333C16.6161 23.2577 16.0248 22.1447 15.5 21C16.0054 19.8458 16.5974 18.7315 17.2708 17.6666C17.8693 16.5874 18.5301 15.544 19.25 14.5416C21.7457 14.3334 24.2543 14.3334 26.75 14.5416C27.4792 15.5833 28.1042 16.625 28.7292 17.6666C29.4026 18.7315 29.9946 19.8458 30.5 21ZM31.3333 16.2083L30.5 14.8541L32.8958 15.375C32.6639 16.1208 32.3856 16.8514 32.0625 17.5625L31.3333 16.2083ZM30.5 27.1458L31.3333 25.7916L32.0625 24.3333L33 26.7291L30.5 27.1458ZM20.8125 7.35414H20.9167L17.5833 11.5208L12.375 12.3541C12.2708 12.0416 12.2708 11.8333 12.1667 11.5208C11.3333 7.24997 11.9583 4.3333 13 3.81247C13.2766 3.63082 13.61 3.55672 13.9375 3.60414C15.3958 3.60414 17.8958 4.6458 20.7083 7.1458L20.8125 7.35414ZM12.1667 30.5833C12.1857 30.2617 12.256 29.9452 12.375 29.6458L17.6875 30.375C18.689 31.8481 19.8034 33.2412 21.0208 34.5416L20.8125 34.75L20.6042 34.9583C19.184 36.2738 17.5211 37.2999 15.7083 37.9791C15.3107 38.1874 14.875 38.3133 14.4275 38.3491C13.98 38.3849 13.5299 38.3299 13.1042 38.1875C11.9583 37.5625 11.3333 34.75 12.1667 30.5833Z" fill="black"/>
<path d="M23 16.4166C22.0894 16.3959 21.1932 16.647 20.4259 17.1379C19.6586 17.6287 19.0549 18.3371 18.692 19.1726C18.3291 20.008 18.2233 20.9327 18.3882 21.8285C18.5532 22.7243 18.9812 23.5507 19.6179 24.2022C20.2545 24.8536 21.0709 25.3006 21.9627 25.4861C22.8545 25.6715 23.7813 25.587 24.6249 25.2434C25.4685 24.8998 26.1905 24.3126 26.6989 23.5568C27.2073 22.801 27.4789 21.9108 27.4792 20.9999C27.4795 19.8022 27.0109 18.6519 26.1738 17.7953C25.3366 16.9387 24.1974 16.4438 23 16.4166Z" fill="black"/>
</g>
<g id="sc">
<path d="M31.2591 0.25L30.9888 1.64963C30.5708 4.30212 30.7221 5.06099 31.8682 6.04539L32.9747 6.95461L31.8286 12.0305C31.1438 15.0588 30.3041 17.5968 29.7707 18.4308C29.313 19.1503 28.7796 20.2099 28.6642 20.7791C28.4732 21.4592 27.8245 22.1429 26.8334 22.7478C25.9576 23.2418 24.2385 24.5663 23.0203 25.6294C22.0472 26.4993 21.3769 27.0326 21.0129 27.2617L19.8235 28.196C19.4415 28.8046 19.2253 29.295 19.1424 29.6672C19.0595 30.0503 19.1063 30.3044 19.2289 30.4905C19.3478 30.6695 19.5532 30.7948 19.8343 30.8736C20.1671 30.951 20.5097 30.9788 20.8507 30.9559C21.6222 30.9035 22.3858 30.7691 23.1284 30.555C23.3807 30.487 23.5789 30.4225 23.7519 30.3653C24.0186 30.0395 24.6349 29.4238 25.7269 28.3535C28.6246 25.5149 29.731 23.9613 28.5885 24.3802C28.1669 24.5305 28.3579 24.1511 29.0823 23.3922C30.6104 21.9138 31.4862 19.6801 33.317 12.6748C34.7659 7.14433 34.7659 7.06558 35.8327 7.06558C36.3336 7.06558 37.75 7.15149 37.75 7.15149V0.25H34.4992H31.2591ZM18.4216 12.0806C17.3692 12.0735 15.1058 13.6664 8.33025 19.1611C8.03832 19.8519 8.01309 20.328 8.14644 20.6359C8.23294 20.8471 8.39152 20.9938 8.61137 21.1012C8.82761 21.2086 9.10873 21.2731 9.41867 21.2981C10.035 21.3518 10.763 21.2552 11.3504 21.1406L11.7469 21.0511C11.8826 20.8704 12.0608 20.7254 12.2659 20.6287C12.6839 20.3996 14.4391 18.8103 16.1943 17.1064C19.2829 13.9993 20.0073 12.5961 18.7495 12.1415C18.6463 12.1007 18.5326 12.08 18.4216 12.0806ZM26.336 14.2391C25.4098 14.2642 23.7411 15.3309 20.8831 17.5968C19.4487 18.753 18.5405 19.3759 18.0539 19.5047L16.1654 20.9867C15.4554 22.2753 15.3509 23.0736 15.5383 23.5139C15.5852 23.6225 15.6533 23.7208 15.7387 23.8031C15.8241 23.8855 15.925 23.9502 16.0357 23.9936C16.311 24.1015 16.6046 24.1562 16.9006 24.1546C17.608 24.1471 18.3112 24.0448 18.991 23.8504C19.3453 23.7559 19.6952 23.6461 20.0398 23.521L20.1443 23.4781L20.3353 23.3779C20.6957 22.9161 21.5246 22.0462 22.5626 21.044C25.8423 17.9011 27.5181 15.6674 27.1758 14.8333C27.0208 14.4288 26.7541 14.2248 26.336 14.2391ZM17.5998 18.1051C17.3331 18.1337 16.7349 18.5919 15.6573 19.5298C14.1003 20.8972 12.4028 21.6847 11.8154 21.3339C11.6788 21.3645 11.5419 21.3932 11.4045 21.4198C10.8062 21.5379 10.0602 21.6346 9.39344 21.5809C9.07929 21.562 8.77137 21.4855 8.48523 21.3554C8.21533 21.2328 7.99994 21.0164 7.87975 20.7468C7.7464 20.4247 7.7464 20.0238 7.89777 19.5119L5.55514 21.4234L0.253605 25.7798V32.8423L17.6251 19.2506C17.6217 19.1018 17.6411 18.9533 17.6827 18.8103C17.8161 18.3306 17.8089 18.0872 17.5998 18.1087V18.1051ZM25.0746 20.3925C24.8115 20.3925 24.3718 20.7612 23.669 21.5021C22.714 22.5152 21.2111 23.496 20.4146 23.6964L20.292 23.7609C20.1613 23.8145 20.0291 23.8646 19.8956 23.9112C19.6794 23.9828 19.3982 24.0687 19.0739 24.1546C18.4252 24.33 17.6179 24.4911 16.897 24.4732C16.5572 24.4728 16.2207 24.4072 15.9059 24.2799C15.6093 24.1585 15.3716 23.9275 15.2428 23.6356C15.0338 23.138 15.1167 22.44 15.5744 21.4485L0.25 33.4366V37.75H6.98234L21.2615 26.6103C21.6327 26.2022 22.1914 25.6438 22.9446 24.9457C24.9629 23.0879 25.4206 22.4472 25.4206 21.4986C25.4206 20.7612 25.3377 20.3889 25.0746 20.3889V20.3925ZM28.4732 27.3727L27.2514 28.5826C26.5667 29.2269 25.3449 30.0216 24.5088 30.3617L24.343 30.4333L24.3322 30.4512L24.2961 30.487C24.2637 30.512 24.2493 30.5156 24.2241 30.5263C23.8903 30.6518 23.5512 30.7629 23.2077 30.8592C22.4441 31.08 21.6586 31.218 20.8651 31.2709C20.4899 31.2948 20.1132 31.2622 19.7478 31.1743C19.4307 31.1049 19.1508 30.9213 18.9622 30.6588C18.7892 30.3939 18.7387 30.0395 18.836 29.6028C18.9134 29.2919 19.0284 28.9914 19.1784 28.7079L7.6563 37.75H22.9807L24.8115 35.6667C27.3271 32.7529 28.4732 30.6695 28.4732 28.8869V27.3727Z" fill="black"/>
</g>
<g id="tg">
<path d="M46.8661 3.54959L39.7733 36.6459C39.2378 38.9813 37.8428 39.5627 35.8602 38.4631L25.0524 30.5831L19.8382 35.5463C19.2607 36.1177 18.7789 36.5944 17.6659 36.5944L18.4431 25.7046L38.4723 7.79687C39.3436 7.02947 38.2826 6.60258 37.1192 7.37165L12.3577 22.7994L1.69761 19.4973C-0.620739 18.7813 -0.662707 17.2034 2.18109 16.1021L43.8762 0.207567C45.8068 -0.508342 47.4956 0.632794 46.8661 3.55125V3.54959Z" fill="black"/>
</g>
<g id="ts">
<path d="M0 20V40H40V0H0V20ZM32.235 18.4067C33.2517 18.66 34.025 19.1117 34.7367 19.8483C35.105 20.2417 35.6517 20.9583 35.695 21.1317C35.7083 21.1817 33.9683 22.3483 32.915 23.0033C32.8767 23.0283 32.7233 22.8633 32.5533 22.61C32.0367 21.86 31.4983 21.5367 30.6733 21.48C29.46 21.3967 28.68 22.0317 28.6867 23.0917C28.6756 23.3523 28.7343 23.6112 28.8567 23.8417C29.1233 24.3933 29.62 24.725 31.1733 25.3967C34.0383 26.63 35.2633 27.4417 36.025 28.5967C36.875 29.885 37.0667 31.9433 36.4883 33.4733C35.855 35.1367 34.28 36.2667 32.0633 36.64C31.3783 36.7617 29.7533 36.7433 29.0167 36.61C27.41 36.3233 25.8867 35.53 24.9467 34.4883C24.5783 34.0833 23.86 33.0217 23.905 32.9467C23.9233 32.92 24.0883 32.8183 24.2717 32.7117C24.4517 32.61 25.1233 32.2217 25.7583 31.8533L26.9083 31.1867L27.15 31.5433C27.4867 32.0567 28.2217 32.7617 28.6667 32.9967C29.9433 33.67 31.695 33.575 32.5583 32.8C32.7319 32.6538 32.8694 32.4693 32.9599 32.2612C33.0504 32.053 33.0915 31.8267 33.08 31.6C33.08 31.1367 33.0217 30.9333 32.78 30.5833C32.47 30.14 31.835 29.7667 30.0317 28.9833C27.9683 28.095 27.08 27.5433 26.2667 26.6667C25.759 26.0881 25.3841 25.4055 25.1683 24.6667C25.0167 24.1017 24.9783 22.685 25.0983 22.115C25.5233 20.12 27.0283 18.7317 29.2 18.3183C29.905 18.185 31.5433 18.235 32.235 18.4067ZM22.845 20.0767L22.8583 21.715H17.65V36.5083H13.9667V21.715H8.76333V20.1083C8.76333 19.2183 8.78167 18.475 8.80667 18.4583C8.82667 18.4317 11.995 18.4183 15.835 18.425L22.8267 18.445L22.845 20.0767Z" fill="black"/>
</g>
</svg>
